<svg width="139" height="21" viewBox="0 0 139 21" fill="none" xmlns="http://www.w3.org/2000/svg">
<path d="M38.03 0.0267686L27.8051 20.9598H33.6467L41.0151 5.7508L48.3834 20.9598H54.2293L44.0002 0.0267686H38.03Z" fill="white"/>
<path d="M100.533 0.0267686L90.3078 20.9598H96.1493L103.518 5.7508L110.89 20.9598H116.732L106.507 0.0267686H100.533Z" fill="white"/>
<path d="M87.2026 0.0267686L82.1502 10.5112L85.0452 16.4761L93.0441 0.0267686H87.2026Z" fill="white"/>
<path d="M79.8342 15.2358L75.7597 6.83047V6.826L75.3694 6.02741L72.4615 0.0267686L65.0931 15.2358L57.7205 0.0267686H51.8789L62.1037 20.9598H68.0782L72.4615 11.9834L76.8448 20.9598H82.6606L79.8471 15.2001L79.8342 15.2358Z" fill="white"/>
<path d="M133.154 0.0267686L129.98 6.62078C129.783 7.02677 129.384 7.28553 128.947 7.28553H123.337C122.899 7.28553 122.5 7.02677 122.303 6.62078L119.129 0.0267686H113.288L118.173 10.0784C118.546 10.8413 119.297 11.3231 120.12 11.3231H123.277V20.9955H129.007V11.3187H132.163C132.987 11.3187 133.737 10.8368 134.111 10.0739L134.467 9.3378L139 0.0267686H133.154Z" fill="white"/>
<path d="M10.2077 12.7017L18.3995 4.06883H21.7363V0H15.8605L15.4702 0.405991L5.70857 10.6361V7.38368L5.73001 7.26769H5.70857V0H0V21H2.34605L3.46117 19.8088L9.56432 13.3799L16.9842 21H24.0052L15.9248 12.7017H10.2077Z" fill="white"/>
</svg>
