<svg width="117" height="24" viewBox="0 0 117 24" fill="none" xmlns="http://www.w3.org/2000/svg">
<path fill-rule="evenodd" clip-rule="evenodd" d="M5.19978 13.9929H13.7617C14.832 13.9929 15.7003 13.0714 15.7003 11.9357V9.66429H5.19978V4.45714H15.1551C16.2253 4.45714 17.0936 3.53571 17.0936 2.4V0H1.93856C0.868312 0 0 0.921429 0 2.05714V21.9429C0 23.0786 0.868312 24 1.93856 24H15.569C16.6393 24 17.5076 23.0786 17.5076 21.9429V19.5429H5.19978V13.9929Z" fill="white"/>
<path fill-rule="evenodd" clip-rule="evenodd" d="M36.5398 2.05714V14.5714L25.8777 0.75C25.494 0.257143 24.9791 0 24.3733 0H22.8992C21.829 0 20.9606 0.921429 20.9606 2.05714V24H24.1916C25.2618 24 26.1301 23.0786 26.1301 21.9429V9.42857L36.8225 23.25C37.2062 23.7429 37.7211 24 38.3168 24H39.7606C40.8309 24 41.6992 23.0786 41.6992 21.9429V0H38.4682C37.4081 0 36.5398 0.921429 36.5398 2.05714Z" fill="white"/>
<path fill-rule="evenodd" clip-rule="evenodd" d="M57.9649 0C51.1395 0 45.5864 4.77857 45.5864 12C45.5864 19.2214 51.1294 24 57.9649 24C64.77 24 70.3434 19.1893 70.3434 12C70.3333 4.81071 64.77 0 57.9649 0ZM57.9649 19.425C53.7849 19.425 50.8871 16.2429 50.8871 12C50.8871 7.75714 53.7849 4.575 57.9649 4.575C62.1449 4.575 65.0426 7.75714 65.0426 12C65.0426 16.2429 62.1449 19.425 57.9649 19.425Z" fill="white"/>
<path fill-rule="evenodd" clip-rule="evenodd" d="M107.479 1.22143C107.156 0.460714 106.489 0 105.712 0H103.057C102.269 0 101.603 0.460714 101.29 1.22143L91.718 24H95.4134C96.3826 24 97.2106 23.5071 97.7154 22.6393C99.1188 20.2286 101.603 18.7607 104.359 18.7607C107.115 18.7607 109.599 20.2393 111.003 22.6393C111.507 23.5071 112.345 24 113.305 24H117L107.479 1.22143ZM100.926 13.8321C101.784 11.7321 102.744 9.40714 103.45 7.67143C103.612 7.28571 103.945 7.05 104.339 7.05C104.733 7.05 105.076 7.28571 105.227 7.67143C105.924 9.41786 106.873 11.7321 107.711 13.8107C106.691 13.5429 105.581 13.4036 104.349 13.4036C103.107 13.4036 101.966 13.5536 100.926 13.8321Z" fill="white"/>
<path fill-rule="evenodd" clip-rule="evenodd" d="M92.2935 0C91.1122 0 90.0924 0.707143 89.628 1.86429L83.3983 17.1429L77.2697 1.875C76.8052 0.717857 75.7855 0 74.5941 0H70.8583L80.1068 22.7571C80.4198 23.5286 81.0963 24 81.8838 24H84.509C85.2965 24 85.973 23.5286 86.286 22.7571L95.585 0H92.2935Z" fill="white"/>
</svg>
