<svg width="128" height="20" viewBox="0 0 128 20" fill="none" xmlns="http://www.w3.org/2000/svg">
<path d="M97.8988 0.512427C97.0439 0.136113 96.0766 0.0133445 95.0586 0.0133445C93.1435 0.0106756 91.2313 0.0133445 89.3162 0.0133445C87.4068 0.0133445 85.4973 0.0133445 83.5879 0.0133445C83.2926 0.0133445 82.9973 0.02402 82.6992 0.04804L82.7077 0.0133445H55.07V0.0160133C51.9598 0.0160133 45.8912 0.0160133 44.3024 0.0160133C42.3929 0.0160133 40.4835 0.0160133 38.574 0.0160133C37.6995 0.0160133 36.8165 0.104087 35.9166 0.362969C34.4683 0.781985 33.2394 1.54262 32.303 2.76497C31.6534 3.61368 31.2822 4.51843 31.0516 5.45254C30.2923 8.51109 29.5274 11.5723 28.7766 14.6309C28.6838 15.0045 28.6219 15.3862 28.5966 15.7545C28.4785 17.4972 29.1928 18.7249 30.7338 19.4242C31.6 19.8165 32.5842 19.9446 33.6219 19.9446C37.4351 19.9446 41.2512 19.9446 45.0644 19.9446C45.925 19.9446 46.7939 19.8592 47.6769 19.6083C49.0774 19.208 50.2922 18.4927 51.2371 17.3291C51.9289 16.4777 52.3226 15.557 52.5588 14.6042C52.9272 13.1203 53.2984 11.6364 53.6668 10.1525C54.1814 8.08407 52.8288 6.40801 50.6493 6.40801H49.9013C49.9013 6.41334 49.8985 6.41868 49.8985 6.42402C49.3108 8.79666 48.7258 11.1693 48.1297 13.542C48.0537 13.8435 47.9525 14.1531 47.8147 14.4494C47.421 15.2847 46.732 15.7731 45.8097 15.8906C45.5538 15.9226 45.2979 15.9386 45.0504 15.9413C43.5262 15.9466 42.0048 15.944 40.4835 15.944C38.8721 15.944 37.258 15.9493 35.6494 15.9386C35.3373 15.9359 35.0195 15.9066 34.7411 15.8265C33.8693 15.5783 33.5403 14.9404 33.6444 14.033C33.6612 13.8916 33.6894 13.7501 33.7259 13.6087C34.3193 11.212 34.9126 8.81535 35.5144 6.41868C35.5791 6.15446 35.6635 5.88757 35.7844 5.63136C36.1809 4.78799 36.8727 4.28891 37.7951 4.11276C38.0847 4.05671 38.3772 4.03003 38.6584 4.03003C38.9396 4.03003 39.2208 4.03003 39.502 4.03003H40.6044C42.2664 4.02736 43.9255 4.02736 45.5847 4.03003H76.5575C76.3438 4.49708 76.1835 4.97481 76.0626 5.45788C75.3033 8.51643 74.5384 11.5776 73.7876 14.6362C73.6948 15.0098 73.6329 15.3915 73.6076 15.7598C73.4895 17.5026 74.2038 18.7303 75.7448 19.4295C76.611 19.8219 77.5952 19.95 78.6329 19.95C82.4461 19.95 86.2622 19.95 90.0755 19.95C90.936 19.95 91.8049 19.8646 92.6879 19.6137C94.0884 19.2133 95.3032 18.4981 96.2481 17.3344C96.9399 16.4831 97.3336 15.5623 97.5698 14.6095C97.9382 13.1256 98.3094 11.6417 98.6778 10.1578C99.1924 8.08941 97.8398 6.41334 95.6604 6.41334H94.9123C94.9123 6.41868 94.9095 6.42402 94.9095 6.42936C94.3218 8.802 93.7369 11.1746 93.1407 13.5473C93.0648 13.8489 92.9635 14.1585 92.8257 14.4547C92.432 15.2901 91.7431 15.7785 90.8207 15.8959C90.5648 15.9279 90.3089 15.944 90.0614 15.9466C88.5372 15.952 87.0159 15.9493 85.4945 15.9493C83.8831 15.9493 82.269 15.9546 80.6604 15.944C80.3483 15.9413 80.0305 15.9119 79.7521 15.8319C78.8804 15.5837 78.5513 14.9458 78.6554 14.0384C78.6723 13.8969 78.7004 13.7555 78.7369 13.614C79.3303 11.2173 79.9237 8.82068 80.5255 6.42402C80.5901 6.1598 80.6745 5.89291 80.7954 5.6367C81.1919 4.79333 81.8837 4.29425 82.8061 4.1181C83.0958 4.06205 83.3882 4.03536 83.6694 4.03536C83.9506 4.03536 84.2319 4.03536 84.5131 4.03536H85.6154C87.2774 4.03269 88.9366 4.03269 90.5957 4.03536H100.05C100.104 2.3593 99.4005 1.17431 97.8988 0.512427Z" fill="white"/>
<path d="M59.1364 19.9606H63.9057L67.2719 6.40534H62.5025L59.1364 19.9606Z" fill="white"/>
<path d="M26.0179 0.616514C25.1939 0.154796 24.2209 0 23.172 0C17.1596 0.00266889 11.1501 0.00266889 5.14058 0.00266889C5.08434 0.00266889 5.0281 0.00266889 4.96342 0.00266889L4.80594 0.637865C4.34193 2.50609 5.5624 4.02202 7.53089 4.02202H8.69793C8.69793 4.01935 8.69793 4.01668 8.70074 4.01401C8.75699 4.01401 8.8076 4.01401 8.85822 4.01401C12.9808 4.01401 17.1062 4.01401 21.2288 4.01401C21.7012 4.01401 22.1231 4.10475 22.4408 4.37965C22.7305 4.63319 22.888 4.96947 22.8064 5.38048C22.677 6.03169 22.5308 6.68824 22.2974 7.33411C22.0443 8.0387 21.2907 8.53244 20.5258 8.58582C20.2811 8.60184 20.0393 8.61251 19.8002 8.61251C15.7873 8.61518 11.7744 8.61251 7.76149 8.61251C7.69962 8.61251 7.63776 8.61251 7.56183 8.61251L8.11019 6.40267H3.37175L0 19.9873H1.18672C3.26489 19.9873 5.06747 18.6315 5.54553 16.7126L6.5579 12.6399C6.61695 12.6372 6.66476 12.6319 6.71256 12.6319C9.69624 12.6319 12.6799 12.6319 15.6636 12.6292C15.7283 12.6292 15.7733 12.6425 15.8042 12.6772L18.8497 19.99H18.9341C18.9819 20.0033 19.0466 20.0033 19.1422 19.99H23.92C24.0241 20.0033 24.0803 19.9953 24.2097 19.99C23.2226 17.5079 22.244 15.0472 21.2597 12.5731C21.4875 12.5304 21.6984 12.4957 21.9093 12.4477C23.1945 12.1621 24.3446 11.5723 25.3008 10.5768C26.1416 9.70409 26.6506 8.72194 26.929 7.6784C27.1765 6.75763 27.393 5.8342 27.6208 4.91343C27.6742 4.69458 27.722 4.47306 27.7473 4.25421C27.9442 2.61284 27.3902 1.38249 26.0179 0.616514Z" fill="white"/>
<path d="M126.228 0.616514C125.404 0.154796 124.431 0 123.382 0C117.37 0.00266889 111.361 0.00266889 105.351 0.00266889C105.295 0.00266889 105.238 0.00266889 105.174 0.00266889L105.016 0.637865C104.552 2.50609 105.773 4.02202 107.741 4.02202H108.908C108.908 4.01935 108.908 4.01668 108.911 4.01401C108.967 4.01401 109.018 4.01401 109.069 4.01401C113.191 4.01401 117.317 4.01401 121.439 4.01401C121.912 4.01401 122.333 4.10475 122.651 4.37965C122.941 4.63319 123.098 4.96947 123.017 5.38048C122.887 6.03169 122.741 6.68824 122.508 7.33411C122.255 8.0387 121.501 8.53244 120.736 8.58582C120.494 8.60184 120.25 8.61251 120.011 8.61251C115.998 8.61518 111.985 8.61251 107.972 8.61251C107.91 8.61251 107.848 8.61251 107.772 8.61251L108.321 6.40267H103.588L100.216 19.9847H101.403C103.481 19.9847 105.283 18.6289 105.762 16.7099L106.774 12.6372C106.833 12.6345 106.881 12.6292 106.929 12.6292C109.912 12.6292 112.896 12.6292 115.88 12.6265C115.944 12.6265 115.989 12.6399 116.02 12.6746L119.066 19.9873H119.15C119.198 20.0007 119.263 20.0007 119.358 19.9873H124.136C124.24 20.0007 124.296 19.9927 124.426 19.9873C123.439 17.5053 122.46 15.0445 121.476 12.5705C121.704 12.5278 121.914 12.4931 122.125 12.445C123.41 12.1595 124.561 11.5696 125.517 10.5741C126.358 9.70142 126.867 8.71927 127.145 7.67573C127.392 6.75496 127.609 5.83153 127.837 4.91076C127.89 4.69191 127.938 4.47039 127.963 4.25154C128.155 2.61284 127.601 1.38249 126.228 0.616514Z" fill="white"/>
</svg>
