<svg width="137" height="40" viewBox="0 0 137 40" fill="none" xmlns="http://www.w3.org/2000/svg">
<path d="M40.4341 21.8872L40.7324 20.2046C42.0421 12.3479 38.7223 8.17652 30.6563 8.27888C23.2386 8.37485 18.609 12.5783 16.8583 20.3389C15.9571 27.447 19.4001 31.4201 27.3624 31.4201C34.3586 31.4201 38.262 28.0612 40.0775 23.845L33.3341 23.8642C32.4588 25.6428 30.6368 26.7944 28.0497 26.7944C24.678 26.5129 23.1219 24.8814 23.3812 21.8872H40.4341ZM30.2542 12.9046C33.4962 12.9557 34.9162 14.7792 34.6698 17.671H23.9907C24.8012 14.6832 26.928 12.8534 30.2542 12.9046Z" fill="white"/>
<path d="M110.28 23.8642C109.404 25.6428 107.582 26.7944 104.995 26.7944C101.623 26.5129 100.067 24.8814 100.327 21.8872H117.386L117.684 20.2046C118.994 12.3479 115.674 8.17652 107.608 8.27888C100.184 8.37485 95.5544 12.5783 93.8037 20.3453C92.9025 27.4534 96.3455 31.4265 104.308 31.4265C111.304 31.4265 115.207 28.0676 117.023 23.8514L110.28 23.8642ZM107.2 12.9046C110.442 12.9557 111.862 14.7792 111.615 17.671H100.936C101.747 14.6832 103.873 12.8534 107.2 12.9046Z" fill="white"/>
<path d="M12.767 0L11.7425 5.75171L19.5686 0H12.767Z" fill="white"/>
<path d="M20.7423 8.96986H13.947V8.97625H11.1654L7.13238 31.5608C6.76279 33.6146 5.84207 34.6446 4.36372 34.6446C3.62454 34.6446 2.80756 34.5487 1.91926 34.3631L0 38.8609C1.08931 39.5134 2.58711 39.8909 4.51285 39.9805C9.92049 40.262 13.0458 37.4981 13.8952 31.7016L17.5392 11.3243L20.7423 8.96986Z" fill="white"/>
<path d="M133.447 8.27888C130.672 8.27888 128.454 9.82078 126.794 12.911L127.52 8.8419H120.861L116.926 30.8635H123.585L125.543 19.9231C126.288 16.2763 128.143 14.4081 131.126 14.3121C132.234 14.3121 133.11 14.5936 133.752 15.1566L137 9.40491C136.092 8.74593 134.912 8.36845 133.447 8.27888Z" fill="white"/>
<path d="M53.9337 8.27888C47.6183 8.42603 44.0262 10.6653 43.1379 15.1502C42.7294 17.9589 44.0975 19.8719 47.2423 20.9019C48.8244 21.369 50.374 21.7465 51.8978 22.0216C54.9258 22.6742 56.0799 23.4483 55.8854 24.5487C55.6196 26.0459 54.2385 26.7944 51.7422 26.7944C49.155 26.7944 47.7221 25.7388 47.6119 23.7746L40.8102 23.8194C39.9478 28.6562 44.2207 31.612 51.4698 31.4265C57.9668 31.2601 61.6173 29.2256 62.4926 24.8367C63.3096 21.2858 61.6756 19.0402 57.5907 18.0997C57.3313 18.0101 56.9293 17.9141 56.3912 17.8182C54.6988 17.4471 53.4993 17.1656 52.799 16.9736C50.8474 16.5066 50.0174 15.8092 50.2638 14.8687C50.6269 13.4676 51.7033 12.7638 53.5512 12.7638C55.5872 12.7638 56.6051 13.5124 56.6181 15.0095L63.5495 15.0223C64.4767 9.82718 59.8795 8.13813 53.9337 8.27888Z" fill="white"/>
<path d="M89.9652 26.3785C88.1886 26.4681 87.5208 25.2973 87.9552 22.8661L89.0575 16.8137L87.4883 15.0351H89.3752V15.0287H94.6466L95.5609 9.92314H90.2894L91.8974 0.940491L91.865 0.946889L84.2399 6.55785L83.6369 9.92314H75.3633L76.9713 0.940491L76.9389 0.946889L69.3137 6.55785L68.7107 9.92314H65.2418L64.3211 15.0223H67.79L66.0718 24.5487C65.1445 29.2256 67.0897 31.5161 71.9138 31.4265C74.0406 31.4265 75.9663 31.0042 77.6846 30.1661L77.0751 25.8155C76.3618 26.193 75.6745 26.3849 75.0326 26.3849C73.256 26.4745 72.5882 25.3037 73.0226 22.8725L74.1248 16.8201L72.5557 15.0415H74.4426V15.0351H82.7161L80.9979 24.5551C80.0707 29.232 82.0159 31.5225 86.8399 31.4329C88.9667 31.4329 90.8924 31.0106 92.6107 30.1725L92.0012 25.8219C91.2944 26.1866 90.6136 26.3785 89.9652 26.3785Z" fill="white"/>
</svg>
