<svg width="134" height="10" viewBox="0 0 134 10" fill="none" xmlns="http://www.w3.org/2000/svg">
<path d="M5.61523 6.79688C5.61523 6.56641 5.56641 6.37109 5.46875 6.21094C5.375 6.04688 5.19727 5.89648 4.93555 5.75977C4.67383 5.61914 4.29688 5.47266 3.80469 5.32031C3.40234 5.19922 3.0293 5.06055 2.68555 4.9043C2.3457 4.74805 2.04883 4.56836 1.79492 4.36523C1.54102 4.1582 1.3418 3.91992 1.19727 3.65039C1.05664 3.37695 0.986328 3.0625 0.986328 2.70703C0.986328 2.24219 1.11523 1.83398 1.37305 1.48242C1.63086 1.12695 1.98828 0.849609 2.44531 0.650391C2.90234 0.451172 3.43164 0.351562 4.0332 0.351562C4.67383 0.351562 5.22461 0.46875 5.68555 0.703125C6.14648 0.933594 6.5 1.24609 6.74609 1.64062C6.99609 2.03516 7.12109 2.47461 7.12109 2.95898H5.60938C5.60938 2.68945 5.55078 2.44922 5.43359 2.23828C5.32031 2.02344 5.14648 1.85742 4.91211 1.74023C4.67773 1.61914 4.37891 1.55859 4.01562 1.55859C3.67578 1.55859 3.39258 1.60938 3.16602 1.71094C2.93945 1.8125 2.77148 1.94922 2.66211 2.12109C2.55273 2.29297 2.49805 2.48828 2.49805 2.70703C2.49805 2.91406 2.56445 3.09766 2.69727 3.25781C2.83008 3.41797 3.03125 3.56445 3.30078 3.69727C3.57031 3.82617 3.90625 3.95117 4.30859 4.07227C4.94141 4.25586 5.4668 4.4707 5.88477 4.7168C6.30273 4.96289 6.61328 5.25391 6.81641 5.58984C7.02344 5.92578 7.12695 6.32422 7.12695 6.78516C7.12695 7.26562 7.00195 7.68164 6.75195 8.0332C6.50195 8.38086 6.14844 8.64844 5.69141 8.83594C5.23438 9.02344 4.69727 9.11719 4.08008 9.11719C3.66992 9.11719 3.26562 9.0625 2.86719 8.95312C2.46875 8.83984 2.10742 8.67188 1.7832 8.44922C1.46289 8.22266 1.20508 7.93945 1.00977 7.59961C0.818359 7.25977 0.722656 6.85938 0.722656 6.39844H2.23438C2.23438 6.67188 2.28125 6.9043 2.375 7.0957C2.46875 7.28711 2.59961 7.44531 2.76758 7.57031C2.93555 7.69141 3.13086 7.7793 3.35352 7.83398C3.58008 7.88867 3.82227 7.91602 4.08008 7.91602C4.41992 7.91602 4.70312 7.86914 4.92969 7.77539C5.15625 7.67773 5.32617 7.54492 5.43945 7.37695C5.55664 7.20898 5.61523 7.01562 5.61523 6.79688ZM16.0469 5.22656H11.5586V4.00781H16.0469V5.22656ZM11.9336 9H10.4219V0.46875H11.9336V9ZM17.2129 9H15.707V0.46875H17.2129V9ZM27.7734 4.95703C27.7734 5.82031 27.625 6.5625 27.3281 7.18359C27.0312 7.80469 26.6172 8.2832 26.0859 8.61914C25.5586 8.95117 24.9395 9.11719 24.2285 9.11719C23.5332 9.11719 22.916 8.95117 22.377 8.61914C21.8418 8.2832 21.4219 7.80469 21.1172 7.18359C20.8164 6.5625 20.666 5.82031 20.666 4.95703V4.51758C20.666 3.6543 20.8164 2.91211 21.1172 2.29102C21.418 1.66602 21.8359 1.1875 22.3711 0.855469C22.9062 0.519531 23.5215 0.351562 24.2168 0.351562C24.9277 0.351562 25.5488 0.519531 26.0801 0.855469C26.6113 1.1875 27.0254 1.66602 27.3223 2.29102C27.623 2.91211 27.7734 3.6543 27.7734 4.51758V4.95703ZM26.2559 4.50586C26.2559 3.87695 26.1758 3.34766 26.0156 2.91797C25.8555 2.48438 25.623 2.1582 25.3184 1.93945C25.0137 1.7168 24.6465 1.60547 24.2168 1.60547C23.7949 1.60547 23.4316 1.7168 23.127 1.93945C22.8262 2.1582 22.5938 2.48438 22.4297 2.91797C22.2695 3.34766 22.1895 3.87695 22.1895 4.50586V4.95703C22.1895 5.58594 22.2715 6.11719 22.4355 6.55078C22.5996 6.98438 22.834 7.3125 23.1387 7.53516C23.4434 7.75781 23.8066 7.86914 24.2285 7.86914C24.6621 7.86914 25.0293 7.75781 25.3301 7.53516C25.6348 7.3125 25.8652 6.98438 26.0215 6.55078C26.1777 6.11719 26.2559 5.58594 26.2559 4.95703V4.50586ZM32.2812 5.85352V4.63477H34.4844C34.8672 4.63477 35.1738 4.57422 35.4043 4.45312C35.6387 4.33203 35.8105 4.16406 35.9199 3.94922C36.0293 3.73438 36.084 3.48828 36.084 3.21094C36.084 2.94531 36.0293 2.69727 35.9199 2.4668C35.8105 2.23633 35.6387 2.04883 35.4043 1.9043C35.1738 1.75977 34.8672 1.6875 34.4844 1.6875H32.7383V9H31.2266V0.46875H34.4844C35.1484 0.46875 35.7129 0.585938 36.1777 0.820312C36.6426 1.05469 36.9961 1.37695 37.2383 1.78711C37.4844 2.19727 37.6074 2.66797 37.6074 3.19922C37.6074 3.75 37.4844 4.22461 37.2383 4.62305C36.9961 5.01758 36.6426 5.32227 36.1777 5.53711C35.7129 5.74805 35.1484 5.85352 34.4844 5.85352H32.2812ZM46.7168 9H45.1289L48.3398 0.46875H49.3477L49.248 1.68164L46.7168 9ZM48.8086 1.68164L48.6973 0.46875H49.7109L52.9336 9H51.3457L48.8086 1.68164ZM51.2461 7.04883H46.5996V5.83008H51.2461V7.04883ZM61.25 9H56.9727V7.78711H61.25V9ZM57.3945 9H55.8828V0.46875H57.3945V9ZM69.7422 9H65.4648V7.78711H69.7422V9ZM65.8867 9H64.375V0.46875H65.8867V9ZM78.8281 5.16797L78.8164 4.06641H80.7031C81.1758 4.06641 81.541 3.96289 81.7988 3.75586C82.0566 3.54883 82.1855 3.25586 82.1855 2.87695C82.1855 2.45898 82.0625 2.15625 81.8164 1.96875C81.5742 1.78125 81.1973 1.6875 80.6855 1.6875H79.2852V9H77.7734V0.46875H80.6855C81.627 0.46875 82.3633 0.65625 82.8945 1.03125C83.4297 1.40234 83.6973 1.98438 83.6973 2.77734C83.6973 3.12891 83.6113 3.45117 83.4395 3.74414C83.2715 4.03711 83.0215 4.27539 82.6895 4.45898C82.3574 4.64258 81.9434 4.75 81.4473 4.78125L80.9902 5.16797H78.8281ZM78.3477 9L79.0332 7.78711H80.9258C81.4102 7.78711 81.7754 7.66797 82.0215 7.42969C82.2676 7.19141 82.3906 6.88281 82.3906 6.50391C82.3906 6.22656 82.3418 5.98828 82.2441 5.78906C82.1465 5.58984 81.9961 5.4375 81.793 5.33203C81.5898 5.22266 81.3223 5.16797 80.9902 5.16797H79.3262L79.3379 4.06641H81.4941L81.834 4.48828C82.3066 4.49609 82.6934 4.5957 82.9941 4.78711C83.2988 4.97852 83.5254 5.22656 83.6738 5.53125C83.8223 5.83203 83.8965 6.1582 83.8965 6.50977C83.8965 7.32617 83.6328 7.94531 83.1055 8.36719C82.582 8.78906 81.8555 9 80.9258 9H78.3477ZM90.3965 0.46875C91.0488 0.46875 91.6055 0.566406 92.0664 0.761719C92.5273 0.957031 92.8789 1.24609 93.1211 1.62891C93.3672 2.01172 93.4902 2.48242 93.4902 3.04102C93.4902 3.4707 93.4121 3.84766 93.2559 4.17188C93.0996 4.49609 92.877 4.76953 92.5879 4.99219C92.3027 5.21094 91.9648 5.38086 91.5742 5.50195L91.1172 5.73633H88.416L88.4043 4.52344H90.4082C90.7559 4.52344 91.0449 4.46289 91.2754 4.3418C91.5098 4.2207 91.6836 4.05469 91.7969 3.84375C91.9141 3.63281 91.9727 3.39258 91.9727 3.12305C91.9727 2.68555 91.8457 2.33789 91.5918 2.08008C91.3418 1.81836 90.9434 1.6875 90.3965 1.6875H88.8789V9H87.3672V0.46875H90.3965ZM90.2207 5.17383L91.8086 5.16797L93.8301 8.92383V9H92.2129L90.2207 5.17383ZM97.7637 9H96.1758L99.3867 0.46875H100.395L100.295 1.68164L97.7637 9ZM99.8555 1.68164L99.7441 0.46875H100.758L103.98 9H102.393L99.8555 1.68164ZM102.293 7.04883H97.6465V5.83008H102.293V7.04883ZM113.721 9H112.203L108.441 2.98828V9H106.93V0.46875H108.441L112.215 6.49219V0.46875H113.721V9ZM118.117 9L118.129 7.78711H119.934C120.457 7.78711 120.895 7.67383 121.246 7.44727C121.598 7.2207 121.863 6.89648 122.043 6.47461C122.223 6.04883 122.312 5.54102 122.312 4.95117V4.50586C122.312 3.90039 122.223 3.38867 122.043 2.9707C121.867 2.55273 121.605 2.23438 121.258 2.01562C120.91 1.79688 120.486 1.6875 119.986 1.6875H118.082V0.46875H119.986C120.748 0.46875 121.416 0.636719 121.99 0.972656C122.568 1.30859 123.02 1.7793 123.344 2.38477C123.668 2.99023 123.83 3.70117 123.83 4.51758V4.95117C123.83 5.77148 123.668 6.48438 123.344 7.08984C123.02 7.69531 122.564 8.16602 121.979 8.50195C121.396 8.83398 120.715 9 119.934 9H118.117ZM118.961 9H117.449V0.46875H118.961V9ZM131.76 6.79688C131.76 6.56641 131.711 6.37109 131.613 6.21094C131.52 6.04688 131.342 5.89648 131.08 5.75977C130.818 5.61914 130.441 5.47266 129.949 5.32031C129.547 5.19922 129.174 5.06055 128.83 4.9043C128.49 4.74805 128.193 4.56836 127.939 4.36523C127.686 4.1582 127.486 3.91992 127.342 3.65039C127.201 3.37695 127.131 3.0625 127.131 2.70703C127.131 2.24219 127.26 1.83398 127.518 1.48242C127.775 1.12695 128.133 0.849609 128.59 0.650391C129.047 0.451172 129.576 0.351562 130.178 0.351562C130.818 0.351562 131.369 0.46875 131.83 0.703125C132.291 0.933594 132.645 1.24609 132.891 1.64062C133.141 2.03516 133.266 2.47461 133.266 2.95898H131.754C131.754 2.68945 131.695 2.44922 131.578 2.23828C131.465 2.02344 131.291 1.85742 131.057 1.74023C130.822 1.61914 130.523 1.55859 130.16 1.55859C129.82 1.55859 129.537 1.60938 129.311 1.71094C129.084 1.8125 128.916 1.94922 128.807 2.12109C128.697 2.29297 128.643 2.48828 128.643 2.70703C128.643 2.91406 128.709 3.09766 128.842 3.25781C128.975 3.41797 129.176 3.56445 129.445 3.69727C129.715 3.82617 130.051 3.95117 130.453 4.07227C131.086 4.25586 131.611 4.4707 132.029 4.7168C132.447 4.96289 132.758 5.25391 132.961 5.58984C133.168 5.92578 133.271 6.32422 133.271 6.78516C133.271 7.26562 133.146 7.68164 132.896 8.0332C132.646 8.38086 132.293 8.64844 131.836 8.83594C131.379 9.02344 130.842 9.11719 130.225 9.11719C129.814 9.11719 129.41 9.0625 129.012 8.95312C128.613 8.83984 128.252 8.67188 127.928 8.44922C127.607 8.22266 127.35 7.93945 127.154 7.59961C126.963 7.25977 126.867 6.85938 126.867 6.39844H128.379C128.379 6.67188 128.426 6.9043 128.52 7.0957C128.613 7.28711 128.744 7.44531 128.912 7.57031C129.08 7.69141 129.275 7.7793 129.498 7.83398C129.725 7.88867 129.967 7.91602 130.225 7.91602C130.564 7.91602 130.848 7.86914 131.074 7.77539C131.301 7.67773 131.471 7.54492 131.584 7.37695C131.701 7.20898 131.76 7.01562 131.76 6.79688Z" fill="white"/>
</svg>
