<?xml version="1.0" encoding="UTF-8"?>
<!-- The Best Svg Icon site in the world: iconSvg.co, Visit us! https://iconsvg.co -->
<svg fill="#000000" width="800px" height="800px" version="1.1" viewBox="144 144 512 512" xmlns="http://www.w3.org/2000/svg">
 <g>
  <path d="m327.91 446.52-46.527-209.37h-67.492v23.266h48.828l46.523 209.38h276.86v-23.277z"/>
  <path d="m516.33 493.05c-19.246 0-34.895 15.648-34.895 34.898 0 19.242 15.645 34.898 34.895 34.898 19.242 0 34.895-15.652 34.895-34.898 0-19.242-15.652-34.898-34.895-34.898zm0 46.531c-6.418 0-11.645-5.2227-11.645-11.633 0-6.4023 5.2227-11.645 11.645-11.645 6.4023 0 11.629 5.2344 11.629 11.645-0.007812 6.4102-5.2266 11.633-11.629 11.633z"/>
  <path d="m341.84 493.05c-19.242 0-34.895 15.648-34.895 34.898 0 19.242 15.648 34.898 34.895 34.898s34.898-15.652 34.898-34.898c0-19.242-15.652-34.898-34.898-34.898zm0 46.531c-6.4102 0-11.633-5.2227-11.633-11.633 0-6.4023 5.2227-11.645 11.633-11.645 6.418 0 11.637 5.2344 11.637 11.645 0 6.4102-5.2227 11.633-11.637 11.633z"/>
  <path d="m384.93 408.21 67.406-67.383 67.391 67.387 16.453-16.449-67.398-67.387 67.379-67.355-16.441-16.453-67.379 67.363-67.375-67.375-16.449 16.449 67.371 67.371-67.406 67.379z"/>
 </g>
</svg>