<svg width="135" height="17" viewBox="0 0 135 17" fill="none" xmlns="http://www.w3.org/2000/svg">
<path d="M22.9997 0.258525C22.5913 0.234178 22.179 0.223744 21.7628 0.227222C21.6694 0.227222 21.5761 0.227222 21.4827 0.227222C21.3777 0.227222 21.2688 0.227222 21.1638 0.227222C21.051 0.227222 20.9382 0.227222 20.8293 0.227222C20.7126 0.227222 20.592 0.227222 20.4714 0.227222C20.4403 0.227222 20.4053 0.227222 20.3742 0.227222L13.0343 4.02884C9.31968 7.6322 5.61281 11.239 1.90206 14.8459C1.29138 15.4372 0.692364 16.0354 0 16.7171C0.0855731 16.7171 0.167256 16.7171 0.24894 16.7171C0.299506 16.7171 0.350072 16.7171 0.400638 16.7171C0.505659 16.7171 0.602901 16.7171 0.700143 16.7136C0.700143 16.7136 0.700143 16.7137 0.700143 16.7171C0.777937 16.7171 0.851841 16.7171 0.925745 16.7171C1.01132 16.7171 1.093 16.7171 1.17468 16.7171C1.28749 16.7171 1.39251 16.7171 1.50142 16.7136C1.50142 16.7136 1.50142 16.7137 1.50142 16.7171C1.56365 16.7171 1.61811 16.7171 1.68034 16.7171C1.77759 16.7206 1.87483 16.7206 1.97207 16.7276C2.0343 16.731 2.09265 16.7276 2.14711 16.7241C2.17044 16.7241 2.19767 16.7241 2.22101 16.7276C2.27158 16.731 2.32214 16.731 2.37271 16.7276C2.43883 16.731 2.49718 16.7276 2.55941 16.7241C2.59442 16.7241 2.63332 16.7241 2.67221 16.7276C2.73056 16.731 2.7889 16.731 2.83947 16.7241C2.85892 16.7241 2.87448 16.7241 2.89393 16.7276C2.95616 16.731 3.01451 16.7276 3.06896 16.7241C3.0923 16.7241 3.11953 16.7241 3.14287 16.7276C3.20899 16.731 3.27511 16.7276 3.33735 16.7241C3.38014 16.7276 3.42292 16.7276 3.46571 16.7276C3.52794 16.731 3.58629 16.7276 3.64463 16.7241C3.67186 16.7241 3.69909 16.7241 3.72632 16.7276C3.80022 16.731 3.86635 16.7276 3.93247 16.7206C3.98693 16.7241 4.04527 16.7241 4.09973 16.7276C4.16974 16.731 4.23198 16.7276 4.2981 16.7241C4.34478 16.7276 4.39145 16.7276 4.43813 16.7276C4.50814 16.731 4.57038 16.7276 4.6365 16.7241C4.68318 16.7276 4.72986 16.7276 4.77653 16.7276C4.84266 16.731 4.90489 16.7276 4.96324 16.7241C4.99824 16.7241 5.03714 16.7241 5.07604 16.7276C5.13827 16.731 5.19662 16.7276 5.25496 16.7241C5.28219 16.7241 5.30942 16.7241 5.33665 16.7276C5.72951 16.7484 6.00956 16.6232 6.31685 16.3276C6.94309 15.7189 14.5669 8.5087 19.0167 4.30013C20.5531 8.02523 22.7858 13.4372 22.8013 13.4755C23.1786 14.4424 23.5793 15.3954 23.9994 16.3415C24.0694 16.5015 24.2405 16.6928 24.4272 16.7032C24.8473 16.7276 25.2791 16.7276 25.7264 16.7276C25.7925 16.7276 25.8586 16.7276 25.9247 16.7276C25.9986 16.7276 26.0764 16.7276 26.1542 16.7276C26.2398 16.7276 26.3254 16.7276 26.4148 16.7276C26.4926 16.7276 26.5743 16.7276 26.6521 16.7276C26.7144 16.7276 26.7766 16.7276 26.8388 16.7276L29.2854 14.2755C27.3989 9.71214 25.5124 5.14533 23.6065 0.592428C23.517 0.411564 23.237 0.272438 22.9997 0.258525Z" fill="white"/>
<path d="M132.354 1.1385C131.09 0.411564 129.569 0.0672272 127.904 0.0254894C126.944 0.00114232 125.979 -0.00233583 125.007 0.00114232C124.917 0.00114232 124.828 0.00114232 124.738 0.00114232C124.637 0.00114232 124.536 0.00114232 124.431 0.00114232C124.318 0.00114232 124.205 0.00114232 124.096 0.00114232C123.984 0.00114232 123.867 0.00114232 123.754 0.00114232C123.638 0.00114232 123.517 0.00114232 123.4 0.00114232C123.311 0.00114232 123.217 0.00114232 123.128 0.00114232C123.023 0.00114232 122.922 0.00114232 122.817 0.00114232C122.735 0.00114232 122.653 0.00114232 122.572 0.00114232C122.494 0.00114232 122.412 0.00114232 122.334 0.00114232C122.288 0.00114232 122.241 0.00114232 122.194 0.00114232H114.252C113.069 0.0533146 111.875 0.119399 110.673 0.328088C107.888 0.815029 105.426 2.08108 103.524 4.28622C101.669 6.4392 100.813 8.70695 100.735 11.0199C100.653 13.4233 101.727 15.1485 103.983 16.1363C105.469 16.7867 107.184 16.9884 109.005 16.9884C110.564 16.9884 112.124 16.9954 113.68 16.9989C113.738 16.9989 113.8 16.9989 113.859 16.9989C113.944 16.9989 114.026 16.9989 114.112 16.9989C114.193 16.9989 114.275 16.9989 114.361 16.9989C114.442 16.9989 114.52 16.9989 114.602 16.9989C114.703 16.9989 114.804 16.9989 114.901 16.9989C114.995 16.9989 115.088 16.9989 115.181 16.9989C115.294 16.9989 115.407 16.9989 115.52 16.9989C115.636 16.9989 115.753 16.9989 115.866 16.9989C115.979 16.9989 116.092 16.9989 116.2 16.9989C116.305 16.9989 116.407 16.9989 116.512 16.9989C116.601 16.9989 116.694 16.9989 116.784 16.9989C118.313 17.0023 119.845 16.9989 121.381 16.9745C122.65 16.9536 123.964 16.8528 125.267 16.6128C128.169 16.0806 130.674 14.7068 132.541 12.3729C134.097 10.4286 134.836 8.39392 134.98 6.32442C135.143 4.03232 134.319 2.2689 132.354 1.1385ZM128.496 9.42693C126.885 13.2459 123.179 14.9781 119.476 15.1346C119.199 15.145 118.927 15.1485 118.655 15.1554C118.262 15.152 117.873 15.1485 117.48 15.1485C117.433 15.1485 117.387 15.1485 117.34 15.1485C117.297 15.1485 117.258 15.1485 117.216 15.1485C117.161 15.1485 117.111 15.1485 117.056 15.1485C117.009 15.1485 116.963 15.1485 116.916 15.1485C116.858 15.1485 116.799 15.1485 116.737 15.1485C116.683 15.1485 116.632 15.1485 116.578 15.1485C116.519 15.1485 116.461 15.1485 116.399 15.1485C116.344 15.1485 116.294 15.1485 116.239 15.1485C116.173 15.1485 116.107 15.1485 116.041 15.1485C115.983 15.1485 115.924 15.1485 115.866 15.1485C115.819 15.1485 115.773 15.1485 115.726 15.1485C115.683 15.1485 115.644 15.1485 115.601 15.1485C115.543 15.1485 115.489 15.1485 115.43 15.1485C115.38 15.1485 115.329 15.1485 115.279 15.1485C115.236 15.1485 115.189 15.1485 115.146 15.1485C115.107 15.1485 115.069 15.1485 115.03 15.1485C114.991 15.1485 114.952 15.1485 114.913 15.1485C114.878 15.1485 114.843 15.1485 114.808 15.1485C114.753 15.1485 114.703 15.1485 114.648 15.1485C114.602 15.1485 114.555 15.1485 114.508 15.1485C114.481 15.1485 114.454 15.1485 114.431 15.1485C114.407 15.1485 114.384 15.1485 114.361 15.1485C114.318 15.1485 114.271 15.1485 114.228 15.1485C114.189 15.1485 114.151 15.1485 114.112 15.1485C113.754 15.1485 113.396 15.152 113.038 15.1554C112.766 15.152 112.494 15.1485 112.225 15.138C110.055 15.0581 108.246 14.4598 107.207 12.9329C106.375 11.7086 106.406 10.2304 106.877 8.63391C107.468 6.62702 108.604 4.83229 110.786 3.47929C112.256 2.56802 113.812 2.05325 115.36 1.9176H123.544C123.746 1.92456 123.953 1.92456 124.159 1.93152C126.279 2.00108 127.912 2.8254 128.733 4.43578C129.499 5.92443 129.254 7.63568 128.496 9.42693Z" fill="white"/>
<path d="M41.7985 0.241135C41.7013 0.241135 41.6002 0.241135 41.499 0.241135C41.4329 0.241135 41.3629 0.241135 41.2968 0.241135C41.2501 0.241135 41.2073 0.241135 41.1606 0.241135C41.1179 0.241135 41.0751 0.241135 41.0323 0.241135C40.9662 0.241135 40.9 0.241135 40.8339 0.241135L36.6447 4.43926C36.1352 6.10529 35.6256 7.76785 35.1161 9.42693H37.3293L34.3342 11.9834C33.8558 13.5485 33.3735 15.1137 32.8912 16.6789C32.9729 16.6789 33.0584 16.6789 33.1401 16.6789C33.1907 16.6789 33.2412 16.6789 33.2879 16.6789C33.389 16.6789 33.4863 16.6789 33.5874 16.6789C33.6613 16.6789 33.7352 16.6789 33.813 16.6789C33.8947 16.6789 33.9803 16.6789 34.062 16.6789C34.1709 16.6789 34.2798 16.6789 34.3848 16.6789C34.4704 16.6789 34.5598 16.6789 34.6454 16.6789C34.7699 16.6789 34.8944 16.6789 35.0188 16.6789C35.1316 16.6789 35.2444 16.6789 35.3533 16.6789C35.4623 16.6789 35.5789 16.6789 35.6879 16.6789C35.789 16.6789 35.8862 16.6789 35.9874 16.6789C36.0729 16.6789 36.1624 16.6789 36.248 16.6789C43.6384 16.6789 52.4835 16.6789 59.9595 16.6789C60.0412 16.6789 60.1267 16.6789 60.2084 16.6789C60.259 16.6789 60.3096 16.6789 60.3562 16.6789C60.4146 16.6789 60.469 16.6789 60.5274 16.6789L61.0992 14.8146C54.5334 14.8146 46.5012 14.8146 39.9354 14.8146C39.138 14.8146 39.138 14.8111 39.3597 14.0876C39.4686 13.7329 39.5775 13.3781 39.6865 13.0233L43.2961 9.40606C49.5118 9.40606 56.7466 9.40606 62.7523 9.40606H62.7562L63.3357 7.52438C56.805 7.52438 48.8078 7.52438 42.277 7.52438C42.1914 7.52438 42.1019 7.52438 42.0164 7.52438C41.9191 7.52438 41.818 7.52438 41.7169 7.52438C41.608 7.52438 41.4952 7.52438 41.3824 7.52438H41.3785C41.4679 7.23221 41.5302 7.03396 41.5885 6.83571C41.6935 6.49485 41.7985 6.15051 41.9036 5.80965L45.6027 2.10542C51.8028 2.10542 59.0143 2.10542 65.0005 2.10542L65.5801 0.241135C58.2286 0.241135 49.4107 0.241135 42.0592 0.241135C41.9736 0.241135 41.888 0.241135 41.7985 0.241135Z" fill="white"/>
<path d="M96.6548 0.801117C95.5618 0.508952 94.3832 0.279394 93.1657 0.26896C86.9461 0.206353 80.6993 0.220266 74.4641 0.213309C74.4641 0.213309 74.4641 0.213309 74.4602 0.213309C74.3747 0.213309 74.2891 0.213309 74.1996 0.213309C74.1996 0.213309 74.1996 0.213309 74.1957 0.213309C74.0985 0.213309 73.9974 0.213309 73.9001 0.213309C73.9001 0.213309 73.9001 0.213309 73.8962 0.213309C73.7834 0.213309 73.6745 0.213309 73.5617 0.213309C73.5617 0.213309 73.5617 0.213309 73.5578 0.213309C73.445 0.213309 73.3361 0.213309 73.2233 0.213309H73.2194C73.2116 0.213309 73.2 0.213309 73.1922 0.213309L69.6331 3.77841C68.3379 8.00436 66.9259 12.4703 65.6268 16.6963C65.7084 16.6963 65.794 16.6963 65.8757 16.6963C65.9263 16.6963 65.9768 16.6963 66.0235 16.6963C66.1246 16.6963 66.2219 16.6963 66.323 16.6963C66.3969 16.6963 66.4708 16.6963 66.5486 16.6963C66.6303 16.6963 66.7159 16.6963 66.7976 16.6963C66.9065 16.6963 67.0115 16.6963 67.1204 16.6963C67.206 16.6963 67.2954 16.6963 67.381 16.6963C67.5055 16.6963 67.6299 16.6963 67.7544 16.6963C67.8244 16.6963 67.8905 16.6963 67.9606 16.6963C68.0033 16.6963 68.05 16.6963 68.0928 16.6963C68.1317 16.6963 68.1706 16.6963 68.2095 16.6963C68.2601 16.6963 68.3067 16.6963 68.3573 16.6963C68.3807 16.6963 68.404 16.6963 68.4273 16.6963C68.5051 16.6963 68.579 16.6963 68.6568 16.6963C68.6802 16.6963 68.7035 16.6963 68.7268 16.6963C68.7774 16.6963 68.828 16.6963 68.8824 16.6963C68.9174 16.6963 68.9524 16.6963 68.9874 16.6963C69.0341 16.6963 69.0808 16.6963 69.1314 16.6963C69.2403 16.6963 69.3453 16.6963 69.4542 16.6963C69.4775 16.6963 69.5009 16.6963 69.5281 16.6963L72.1225 14.0981C72.5387 12.7451 73.0716 11.1451 73.4878 9.78518C73.6317 9.77126 73.6979 9.75735 73.7601 9.75735C76.0783 9.75735 78.3966 9.75387 80.7148 9.75039C82.9748 9.75039 85.2346 9.75735 87.4868 9.77822C89.101 9.79213 90.4235 10.5156 90.5402 11.9416L90.5441 11.9347V11.9973C90.5519 12.119 90.548 12.2442 90.5402 12.3729V12.4251L90.5363 12.4634C90.5324 12.5016 90.5246 12.5399 90.5207 12.5747L89.8984 16.5363C89.9373 16.6267 90.0112 16.7067 90.0812 16.7102C90.4779 16.7276 90.8825 16.7276 91.287 16.7276C91.3492 16.7276 91.4076 16.7276 91.4698 16.7276C91.5515 16.7276 91.6371 16.7276 91.7188 16.7276C91.8004 16.7276 91.886 16.7276 91.9677 16.7276C92.0494 16.7276 92.1272 16.7276 92.2089 16.7276C92.31 16.7276 92.4072 16.7276 92.5084 16.7276C92.6017 16.7276 92.6951 16.7276 92.7884 16.7276C92.9012 16.7276 93.014 16.7276 93.1268 16.7276C93.2124 16.7276 93.2941 16.7276 93.3797 16.7276L95.7329 14.3729C95.8729 13.7433 96.1452 12.8633 96.2775 12.2338C96.6159 10.6338 96.1258 9.47562 94.6205 8.85651C94.496 8.80434 94.3793 8.73825 94.2004 8.6513C94.3404 8.59913 94.3949 8.57478 94.4532 8.55391C96.7481 7.69133 97.9928 6.38355 98.444 4.37318C98.833 2.65149 98.4751 1.29154 96.6548 0.801117ZM91.2753 6.75919C90.4624 7.31221 89.5678 7.58699 88.677 7.69829C87.8135 7.80611 86.9461 7.87915 86.1059 7.88263C82.2513 7.89654 78.4005 7.89306 74.5497 7.89654C74.1957 7.87915 74.1024 7.76785 74.2269 7.38525C74.7442 5.79226 75.2148 4.19927 75.7049 2.6028C75.7516 2.44976 75.7983 2.29672 75.8644 2.08108C75.9578 2.08108 76.0356 2.08108 76.1133 2.08108C76.2106 2.08108 76.2923 2.08108 76.374 2.08108C77.9376 2.08108 79.5013 2.08108 81.0649 2.08108C83.4415 2.08108 85.8181 2.08108 88.1908 2.08803C89.4316 2.09151 90.6646 2.13325 91.6799 2.60975C93.2513 3.3506 93.0413 5.55575 91.2753 6.75919Z" fill="white"/>
</svg>
